<svg width="506" height="154" viewBox="0 0 506 154" fill="none" xmlns="http://www.w3.org/2000/svg">
<path d="M67.3049 11.8207C77.3764 31.9408 55.6961 63.1597 54.7623 64.4683C54.5176 64.816 54.1905 65.0976 53.8103 65.288C53.4301 65.4783 53.0086 65.5714 52.5836 65.5589C50.9765 65.5222 12.9919 64.1695 2.92045 44.0494C0.560743 39.322 0.172583 33.8517 1.84113 28.8385C3.50967 23.8253 7.09865 19.6786 11.8207 17.3082C17.7561 14.3372 24.2305 14.2882 29.6295 16.981C30.7092 11.0452 34.6283 5.89151 40.5637 2.92042C45.2911 0.560715 50.7615 0.172553 55.7747 1.8411C60.7879 3.50964 64.9345 7.09862 67.3049 11.8207Z" fill="#F6B4A4"/>
<path d="M87.835 76.44C87.835 77.56 87.03 78.365 85.42 78.855C84.16 79.275 82.62 79.555 80.8 79.695C79.05 79.765 77.895 79.8 77.335 79.8C77.265 81.97 77.125 84.385 76.915 87.045C76.705 89.705 76.53 91.91 76.39 93.66L76.075 96.915L75.865 100.275L75.235 108.36C74.955 111.93 73.8 113.715 71.77 113.715C71 113.715 70.23 112.805 69.46 110.985C68.76 109.235 68.41 107.8 68.41 106.68C68.41 106.4 68.69 105.84 69.25 105C69.81 104.16 70.16 103.11 70.3 101.85C70.58 99.89 70.895 96.635 71.245 92.085C71.595 87.535 71.84 83.72 71.98 80.64C69.25 80.85 66.31 81.165 63.16 81.585C61.76 81.725 58.61 82.04 53.71 82.53C48.81 83.02 44.96 83.335 42.16 83.475C41.88 88.095 41.565 93.73 41.215 100.38C40.865 107.03 40.69 111.09 40.69 112.56C40.69 113.12 40.76 113.855 40.9 114.765C41.11 115.675 41.215 116.375 41.215 116.865C41.215 117.495 40.725 118.125 39.745 118.755C38.835 119.385 38.1 119.7 37.54 119.7C36.84 119.7 36.245 119.245 35.755 118.335C35.335 117.425 35.125 116.375 35.125 115.185C35.125 114.555 35.195 113.505 35.335 112.035C35.475 110.635 35.58 109.41 35.65 108.36C35.93 106.47 36.105 104.93 36.175 103.74C36.525 99.61 36.805 95.62 37.015 91.77C37.225 87.92 37.365 85.33 37.435 84C33.025 84.77 28.86 85.155 24.94 85.155C23.61 85.155 22.49 84.84 21.58 84.21C20.6 83.51 20.11 82.53 20.11 81.27C20.11 80.36 20.355 79.695 20.845 79.275C21.265 78.785 22.175 78.54 23.575 78.54L29.14 78.645C32.78 78.785 35.72 78.855 37.96 78.855C38.31 72.905 38.485 68.145 38.485 64.575C38.485 56.455 38.415 49.175 38.275 42.735V38.85C38.275 37.8 38.66 36.96 39.43 36.33C40.27 35.63 41.215 35.28 42.265 35.28C43.035 35.28 43.56 35.875 43.84 37.065C44.12 38.255 44.26 39.585 44.26 41.055C44.26 42.595 44.085 45.745 43.735 50.505C43.315 58.625 43.105 62.93 43.105 63.42L42.58 78.435C48.46 78.295 58.435 77.385 72.505 75.705C72.785 73.675 73.275 68.355 73.975 59.745C74.255 55.195 74.5 51.87 74.71 49.77L75.34 41.58C76.25 31.29 76.705 24.85 76.705 22.26C76.705 21.35 77.055 20.615 77.755 20.055C78.455 19.495 79.26 19.215 80.17 19.215C81.43 19.215 82.06 20.44 82.06 22.89C82.06 24.43 81.71 28.525 81.01 35.175C80.24 43.855 79.82 48.685 79.75 49.665C79.33 55.055 78.91 60.2 78.49 65.1C78.14 70 77.895 73.29 77.755 74.97C79.015 74.76 80.135 74.445 81.115 74.025C82.375 73.605 83.355 73.395 84.055 73.395C84.755 73.395 85.56 73.815 86.47 74.655C87.38 75.495 87.835 76.09 87.835 76.44ZM138.822 78.225C139.312 78.225 139.557 78.75 139.557 79.8C139.557 81.06 138.612 83.825 136.722 88.095C134.902 92.365 132.102 96.32 128.322 99.96C124.612 103.6 120.027 105.42 114.567 105.42C110.087 105.42 106.342 104.02 103.332 101.22C100.322 98.42 98.8173 94.115 98.8173 88.305C98.8173 82.845 100.077 77.455 102.597 72.135C105.117 66.745 108.407 62.37 112.467 59.01C116.527 55.58 120.727 53.865 125.067 53.865C127.657 53.865 129.827 54.46 131.577 55.65C133.397 56.77 134.307 58.415 134.307 60.585C134.307 63.035 132.907 65.415 130.107 67.725C127.377 70.035 123.807 72.065 119.397 73.815C114.987 75.565 110.437 76.825 105.747 77.595C104.907 80.815 104.487 83.965 104.487 87.045C104.487 91.105 105.432 94.255 107.322 96.495C109.282 98.735 112.047 99.855 115.617 99.855C121.007 99.855 125.382 97.93 128.742 94.08C132.102 90.23 134.902 85.89 137.142 81.06C137.282 80.78 137.527 80.255 137.877 79.485C138.227 78.645 138.542 78.225 138.822 78.225ZM129.582 61.74C129.582 60.62 128.987 59.745 127.797 59.115C126.677 58.485 125.347 58.17 123.807 58.17C121.147 58.17 118.592 59.045 116.142 60.795C113.692 62.545 111.627 64.645 109.947 67.095C108.337 69.545 107.287 71.715 106.797 73.605C110.017 73.255 113.412 72.345 116.982 70.875C120.552 69.405 123.527 67.795 125.907 66.045C128.357 64.295 129.582 62.86 129.582 61.74ZM158.023 102.165C158.023 102.865 157.568 103.425 156.658 103.845C155.748 104.265 154.733 104.475 153.613 104.475C152.773 104.475 151.968 103.495 151.198 101.535C150.498 99.505 150.148 96.46 150.148 92.4C150.218 84.49 150.323 74.935 150.463 63.735C150.673 52.535 150.848 44.1 150.988 38.43C151.058 36.4 151.408 34.51 152.038 32.76C152.738 31.01 153.928 30.135 155.608 30.135C156.168 30.135 156.518 30.45 156.658 31.08C156.868 31.64 156.973 32.76 156.973 34.44C156.973 34.51 156.938 34.755 156.868 35.175C156.868 35.525 156.868 36.19 156.868 37.17C155.608 55.58 154.978 73.535 154.978 91.035C154.978 93.275 155.468 95.655 156.448 98.175C157.498 100.695 158.023 102.025 158.023 102.165ZM179.044 102.165C179.044 102.865 178.589 103.425 177.679 103.845C176.769 104.265 175.754 104.475 174.634 104.475C173.794 104.475 172.989 103.495 172.219 101.535C171.519 99.505 171.169 96.46 171.169 92.4C171.239 84.49 171.344 74.935 171.484 63.735C171.694 52.535 171.869 44.1 172.009 38.43C172.079 36.4 172.429 34.51 173.059 32.76C173.759 31.01 174.949 30.135 176.629 30.135C177.189 30.135 177.539 30.45 177.679 31.08C177.889 31.64 177.994 32.76 177.994 34.44C177.994 34.51 177.959 34.755 177.889 35.175C177.889 35.525 177.889 36.19 177.889 37.17C176.629 55.58 175.999 73.535 175.999 91.035C175.999 93.275 176.489 95.655 177.469 98.175C178.519 100.695 179.044 102.025 179.044 102.165ZM224.634 58.59C224.634 60.2 224.249 63.7 223.479 69.09C222.639 75.25 222.184 78.715 222.114 79.485C221.204 88.095 220.539 94.675 220.119 99.225C219.769 103.705 219.594 107.765 219.594 111.405C219.594 114.415 219.804 116.795 220.224 118.545C220.714 120.295 221.204 121.66 221.694 122.64C222.254 123.69 222.534 124.32 222.534 124.53C222.534 125.16 221.974 125.72 220.854 126.21C219.734 126.7 218.579 126.945 217.389 126.945C216.479 126.945 215.744 125.72 215.184 123.27C214.694 120.82 214.449 117.005 214.449 111.825C214.449 107.905 214.834 102.62 215.604 95.97L217.179 81.48C215.289 85.12 212.944 88.62 210.144 91.98C207.414 95.27 204.579 96.915 201.639 96.915C198.909 96.915 196.459 94.535 194.289 89.775C192.119 85.015 190.404 79.625 189.144 73.605C187.954 67.585 187.359 63.175 187.359 60.375C187.359 58.625 187.884 57.75 188.934 57.75C190.474 57.75 191.454 59.185 191.874 62.055C194.534 81.515 198.244 91.245 203.004 91.245C204.894 91.245 206.539 90.51 207.939 89.04C209.409 87.5 211.124 85.155 213.084 82.005C213.994 80.535 214.974 78.575 216.024 76.125C217.074 73.675 217.879 71.645 218.439 70.035L219.174 59.43C219.314 57.82 219.524 56.7 219.804 56.07C220.084 55.37 220.644 55.02 221.484 55.02C222.184 55.02 222.884 55.44 223.584 56.28C224.284 57.05 224.634 57.82 224.634 58.59ZM312.93 86.625C312.93 90.125 311.74 93.59 309.36 97.02C307.05 100.38 303.76 103.11 299.49 105.21C295.29 107.38 290.495 108.465 285.105 108.465C280.555 108.465 276.95 108.08 274.29 107.31C271.63 106.61 270.3 105.595 270.3 104.265C270.3 103.565 270.79 102.41 271.77 100.8C272.82 99.12 273.625 98.28 274.185 98.28C275.025 98.28 275.445 98.455 275.445 98.805C275.445 99.015 275.305 99.26 275.025 99.54C274.815 99.82 274.71 100.1 274.71 100.38C274.71 100.59 275.13 100.905 275.97 101.325C276.88 101.745 278.245 102.13 280.065 102.48C281.885 102.83 284.09 103.005 286.68 103.005C290.81 103.005 294.415 102.2 297.495 100.59C300.645 98.98 303.06 96.95 304.74 94.5C306.42 92.05 307.26 89.67 307.26 87.36C307.26 84.35 305.79 81.76 302.85 79.59C299.98 77.42 295.325 75.355 288.885 73.395C282.655 71.365 277.825 69.685 274.395 68.355C271.035 66.955 268.305 65.275 266.205 63.315C264.105 61.285 263.055 58.835 263.055 55.965C263.055 52.115 265.225 48.335 269.565 44.625C273.905 40.845 279.26 37.8 285.63 35.49C292 33.11 297.915 31.92 303.375 31.92C306.175 31.92 307.68 32.48 307.89 33.6C308.1 34.72 308.205 35.98 308.205 37.38C308.205 38.43 307.82 38.955 307.05 38.955C306.7 38.955 306.28 38.85 305.79 38.64C305.37 38.36 304.985 38.15 304.635 38.01C304.215 37.87 303.725 37.73 303.165 37.59C302.605 37.45 301.8 37.38 300.75 37.38C297.11 37.38 292.735 38.325 287.625 40.215C282.515 42.105 278.07 44.45 274.29 47.25C270.58 50.05 268.725 52.745 268.725 55.335C268.725 57.435 269.565 59.255 271.245 60.795C272.995 62.335 275.305 63.665 278.175 64.785C281.045 65.835 285.105 67.165 290.355 68.775C298.055 71.015 303.725 73.535 307.365 76.335C311.075 79.135 312.93 82.565 312.93 86.625ZM368.875 61.53C368.875 62.72 368.35 63.63 367.3 64.26C366.32 64.89 364.5 65.38 361.84 65.73C355.4 66.85 351.795 67.48 351.025 67.62L344.2 68.775C344.2 72.415 344.235 76.23 344.305 80.22C344.445 84.21 344.62 87.71 344.83 90.72C345.11 94.78 345.6 97.895 346.3 100.065C347 102.235 347.385 103.46 347.455 103.74C347.455 104.44 347 105.07 346.09 105.63C345.25 106.26 344.445 106.575 343.675 106.575C343.255 106.575 342.905 106.435 342.625 106.155C342.345 105.945 342.1 105.56 341.89 105C341.47 104.02 341.05 102.2 340.63 99.54C340.28 96.88 340 93.94 339.79 90.72C339.58 87.85 339.405 84.525 339.265 80.745C339.195 76.895 339.16 73.185 339.16 69.615C335.24 70.245 331.215 71.015 327.085 71.925C323.375 72.695 321.17 73.08 320.47 73.08C319.63 73.08 318.825 72.835 318.055 72.345C317.355 71.855 317.005 71.19 317.005 70.35C317.005 69.44 317.32 68.845 317.95 68.565C318.58 68.285 319.63 68.145 321.1 68.145C322.15 68.145 323.69 67.97 325.72 67.62C327.75 67.2 329.045 66.92 329.605 66.78C334.295 65.87 337.48 65.275 339.16 64.995C339.16 63.525 339.09 61.6 338.95 59.22C338.81 56 338.74 53.55 338.74 51.87C338.74 49.14 338.81 47.04 338.95 45.57C339.16 44.03 339.51 42.665 340 41.475C340.56 40.075 341.61 39.375 343.15 39.375C343.78 39.375 344.2 39.48 344.41 39.69C344.62 39.9 344.725 40.285 344.725 40.845C344.725 41.265 344.55 42.49 344.2 44.52C343.85 46.55 343.675 49.245 343.675 52.605C343.675 55.195 343.745 58.1 343.885 61.32L343.99 64.155C347.14 63.665 353.37 62.37 362.68 60.27C363.24 60.13 363.695 59.64 364.045 58.8C364.465 57.96 364.885 57.54 365.305 57.54C366.075 57.54 366.845 57.995 367.615 58.905C368.455 59.745 368.875 60.62 368.875 61.53ZM410.68 83.265C410.68 85.995 409.665 89.145 407.635 92.715C405.605 96.285 402.735 99.365 399.025 101.955C395.315 104.475 391.08 105.735 386.32 105.735C381.63 105.735 378.165 104.44 375.925 101.85C373.685 99.26 372.565 96.04 372.565 92.19C372.565 88.83 373.16 84.665 374.35 79.695C375.61 74.725 377.36 70.28 379.6 66.36C379.74 66.08 380.3 65.065 381.28 63.315C382.33 61.495 383.485 60.13 384.745 59.22C386.005 58.24 387.335 57.75 388.735 57.75C389.365 57.75 389.925 57.925 390.415 58.275C390.975 58.555 391.255 58.94 391.255 59.43C391.255 59.57 391.045 59.92 390.625 60.48C390.275 60.97 389.995 61.355 389.785 61.635C387.405 64.505 385.48 67.34 384.01 70.14C382.05 73.71 380.51 77.245 379.39 80.745C378.34 84.245 377.815 88.06 377.815 92.19C377.815 97.72 381.175 100.485 387.895 100.485C391.045 100.485 393.95 99.575 396.61 97.755C399.34 95.935 401.51 93.73 403.12 91.14C404.73 88.48 405.535 86.065 405.535 83.895C405.535 81.445 404.73 79.31 403.12 77.49C401.51 75.67 399.305 73.745 396.505 71.715C394.685 70.385 393.355 69.3 392.515 68.46C391.675 67.62 391.255 66.92 391.255 66.36C391.255 65.52 391.85 64.855 393.04 64.365C394.23 63.805 395.63 63.525 397.24 63.525C398.15 63.525 398.745 63.595 399.025 63.735C399.305 63.805 399.445 63.98 399.445 64.26C399.445 64.4 399.305 64.645 399.025 64.995C398.815 65.275 398.71 65.52 398.71 65.73C398.71 65.94 399.41 66.64 400.81 67.83C403.61 70.14 405.955 72.485 407.845 74.865C409.735 77.245 410.68 80.045 410.68 83.265ZM455.172 60.795C455.172 61.425 454.717 62.16 453.807 63C452.967 63.77 452.232 64.155 451.602 64.155C451.112 64.155 450.622 63.945 450.132 63.525C449.712 63.105 449.222 62.51 448.662 61.74C448.172 61.04 447.507 60.445 446.667 59.955C445.897 59.465 445.092 59.22 444.252 59.22C442.222 59.22 439.492 61.915 436.062 67.305C432.632 72.625 429.272 79.345 425.982 87.465C426.052 89.075 426.157 91.105 426.297 93.555C426.507 96.005 426.647 97.825 426.717 99.015L427.032 103.215C427.032 104.195 426.822 105.035 426.402 105.735C425.982 106.505 425.212 106.89 424.092 106.89C422.902 106.89 422.132 105.315 421.782 102.165C421.432 98.945 421.222 94.29 421.152 88.2C421.082 86.66 421.012 84.455 420.942 81.585C420.942 78.715 420.872 75.285 420.732 71.295C420.522 65.275 420.417 60.97 420.417 58.38C420.417 56.77 421.397 55.965 423.357 55.965C424.547 55.965 425.247 56.49 425.457 57.54C425.737 58.52 425.877 60.445 425.877 63.315V80.01C427.977 74.62 430.252 69.965 432.702 66.045C435.152 62.125 437.532 59.15 439.842 57.12C442.222 55.02 444.322 53.97 446.142 53.97C447.682 53.97 449.152 54.32 450.552 55.02C451.952 55.72 453.072 56.63 453.912 57.75C454.752 58.8 455.172 59.815 455.172 60.795ZM502.323 78.225C502.813 78.225 503.058 78.75 503.058 79.8C503.058 81.06 502.113 83.825 500.223 88.095C498.403 92.365 495.603 96.32 491.823 99.96C488.113 103.6 483.528 105.42 478.068 105.42C473.588 105.42 469.843 104.02 466.833 101.22C463.823 98.42 462.318 94.115 462.318 88.305C462.318 82.845 463.578 77.455 466.098 72.135C468.618 66.745 471.908 62.37 475.968 59.01C480.028 55.58 484.228 53.865 488.568 53.865C491.158 53.865 493.328 54.46 495.078 55.65C496.898 56.77 497.808 58.415 497.808 60.585C497.808 63.035 496.408 65.415 493.608 67.725C490.878 70.035 487.308 72.065 482.898 73.815C478.488 75.565 473.938 76.825 469.248 77.595C468.408 80.815 467.988 83.965 467.988 87.045C467.988 91.105 468.933 94.255 470.823 96.495C472.783 98.735 475.548 99.855 479.118 99.855C484.508 99.855 488.883 97.93 492.243 94.08C495.603 90.23 498.403 85.89 500.643 81.06C500.783 80.78 501.028 80.255 501.378 79.485C501.728 78.645 502.043 78.225 502.323 78.225ZM493.083 61.74C493.083 60.62 492.488 59.745 491.298 59.115C490.178 58.485 488.848 58.17 487.308 58.17C484.648 58.17 482.093 59.045 479.643 60.795C477.193 62.545 475.128 64.645 473.448 67.095C471.838 69.545 470.788 71.715 470.298 73.605C473.518 73.255 476.913 72.345 480.483 70.875C484.053 69.405 487.028 67.795 489.408 66.045C491.858 64.295 493.083 62.86 493.083 61.74Z" fill="black"/>
<path d="M86.075 125.241C86.075 125.381 85.949 125.633 85.697 125.997C85.109 126.795 84.318 127.572 83.324 128.328C82.33 129.07 81.238 129.441 80.048 129.441C78.788 129.441 77.759 129.084 76.961 128.37C76.163 127.642 75.764 126.571 75.764 125.157C75.764 124.191 75.932 123.099 76.268 121.881C76.604 120.663 76.996 119.606 77.444 118.71C77.906 117.8 78.438 117.044 79.04 116.442C79.656 115.84 80.272 115.539 80.888 115.539C81.49 115.539 81.952 115.756 82.274 116.19C82.61 116.624 82.778 117.163 82.778 117.807C82.778 118.045 82.729 118.29 82.631 118.542C82.547 118.78 82.449 118.983 82.337 119.151C82.225 119.319 82.141 119.403 82.085 119.403C81.973 119.403 81.917 119.34 81.917 119.214C81.917 119.172 81.938 119.081 81.98 118.941C82.036 118.787 82.064 118.661 82.064 118.563C82.064 118.213 82.022 117.884 81.938 117.576C81.868 117.31 81.728 117.093 81.518 116.925C81.308 116.743 81.077 116.652 80.825 116.652C79.817 116.652 78.872 117.625 77.99 119.571C77.64 120.355 77.346 121.237 77.108 122.217C76.87 123.197 76.751 124.142 76.751 125.052C76.751 125.682 76.877 126.256 77.129 126.774C77.395 127.292 77.766 127.705 78.242 128.013C78.732 128.321 79.299 128.475 79.943 128.475C80.965 128.475 81.889 128.23 82.715 127.74C83.555 127.25 84.381 126.62 85.193 125.85C85.221 125.822 85.319 125.668 85.487 125.388C85.655 125.094 85.781 124.947 85.865 124.947C85.949 124.947 86.005 124.968 86.033 125.01C86.061 125.052 86.075 125.129 86.075 125.241ZM93.8629 124.653C93.8629 125.199 93.6599 125.829 93.2539 126.543C92.8479 127.257 92.2739 127.873 91.5319 128.391C90.7899 128.895 89.9429 129.147 88.9909 129.147C88.0529 129.147 87.3599 128.888 86.9119 128.37C86.4639 127.852 86.2399 127.208 86.2399 126.438C86.2399 125.766 86.3589 124.933 86.5969 123.939C86.8489 122.945 87.1989 122.056 87.6469 121.272C87.6749 121.216 87.7869 121.013 87.9829 120.663C88.1929 120.299 88.4239 120.026 88.6759 119.844C88.9279 119.648 89.1939 119.55 89.4739 119.55C89.5999 119.55 89.7119 119.585 89.8099 119.655C89.9219 119.711 89.9779 119.788 89.9779 119.886C89.9779 119.914 89.9359 119.984 89.8519 120.096C89.7819 120.194 89.7259 120.271 89.6839 120.327C89.2079 120.901 88.8229 121.468 88.5289 122.028C88.1369 122.742 87.8289 123.449 87.6049 124.149C87.3949 124.849 87.2899 125.612 87.2899 126.438C87.2899 127.544 87.9619 128.097 89.3059 128.097C89.9359 128.097 90.5169 127.915 91.0489 127.551C91.5949 127.187 92.0289 126.746 92.3509 126.228C92.6729 125.696 92.8339 125.213 92.8339 124.779C92.8339 124.289 92.6729 123.862 92.3509 123.498C92.0289 123.134 91.5879 122.749 91.0279 122.343C90.6639 122.077 90.3979 121.86 90.2299 121.692C90.0619 121.524 89.9779 121.384 89.9779 121.272C89.9779 121.104 90.0969 120.971 90.3349 120.873C90.5729 120.761 90.8529 120.705 91.1749 120.705C91.3569 120.705 91.4759 120.719 91.5319 120.747C91.5879 120.761 91.6159 120.796 91.6159 120.852C91.6159 120.88 91.5879 120.929 91.5319 120.999C91.4899 121.055 91.4689 121.104 91.4689 121.146C91.4689 121.188 91.6089 121.328 91.8889 121.566C92.4489 122.028 92.9179 122.497 93.2959 122.973C93.6739 123.449 93.8629 124.009 93.8629 124.653ZM103.118 126.06C103.118 126.676 102.866 127.271 102.362 127.845C101.872 128.405 101.221 128.853 100.409 129.189C99.5973 129.539 98.7503 129.714 97.8683 129.714C97.2663 129.714 96.8603 129.658 96.6503 129.546C96.4403 129.434 96.3353 129.28 96.3353 129.084C96.3353 128.958 96.4963 128.741 96.8183 128.433C97.1403 128.111 97.3573 127.95 97.4693 127.95C97.6373 127.95 97.7213 127.985 97.7213 128.055C97.7213 128.111 97.6863 128.167 97.6163 128.223C97.5463 128.279 97.5113 128.328 97.5113 128.37C97.5113 128.426 97.5953 128.482 97.7633 128.538C97.9453 128.594 98.1623 128.622 98.4143 128.622C99.0023 128.622 99.5903 128.517 100.178 128.307C100.78 128.083 101.27 127.796 101.648 127.446C102.026 127.096 102.215 126.725 102.215 126.333C102.215 125.955 102.096 125.654 101.858 125.43C101.62 125.206 101.319 125.045 100.955 124.947C100.605 124.835 100.01 124.681 99.1703 124.485C98.2463 124.275 97.5253 124.093 97.0073 123.939C96.5033 123.771 96.0973 123.568 95.7893 123.33C95.4813 123.078 95.3273 122.763 95.3273 122.385C95.3273 121.713 95.6563 121.097 96.3143 120.537C96.9723 119.977 97.7283 119.536 98.5823 119.214C99.4363 118.892 100.094 118.731 100.556 118.731C101.032 118.731 101.27 118.871 101.27 119.151C101.27 119.319 101.214 119.508 101.102 119.718C100.99 119.914 100.822 120.012 100.598 120.012C100.514 120.012 100.423 119.984 100.325 119.928C100.227 119.858 100.129 119.823 100.031 119.823C99.7513 119.823 99.3103 119.914 98.7083 120.096C98.1063 120.278 97.5603 120.551 97.0703 120.915C96.5803 121.279 96.3353 121.72 96.3353 122.238C96.3353 122.574 96.5243 122.826 96.9023 122.994C97.2943 123.148 98.0153 123.344 99.0653 123.582C99.1913 123.624 99.3173 123.659 99.4433 123.687C99.5693 123.701 99.6813 123.722 99.7793 123.75C100.857 124.002 101.683 124.289 102.257 124.611C102.831 124.933 103.118 125.416 103.118 126.06ZM118.161 128.79C118.161 128.958 118.105 129.098 117.993 129.21C117.881 129.336 117.734 129.399 117.552 129.399C117.3 129.399 117.174 129.273 117.174 129.021C117.174 126.193 117.083 124.03 116.901 122.532C116.719 121.02 116.404 120.264 115.956 120.264C115.2 120.264 114.094 122.903 112.638 128.181V128.202C112.638 128.37 112.582 128.517 112.47 128.643C112.358 128.755 112.211 128.811 112.029 128.811C111.777 128.811 111.651 128.685 111.651 128.433C111.651 127.873 111.679 127.005 111.735 125.829C111.791 124.513 111.819 123.477 111.819 122.721C111.819 121.671 111.784 120.929 111.714 120.495C111.658 120.047 111.525 119.823 111.315 119.823C110.839 119.823 110.237 120.698 109.509 122.448C108.781 124.184 108.018 126.235 107.22 128.601L107.031 129.147C106.975 129.287 106.891 129.406 106.779 129.504C106.681 129.602 106.569 129.651 106.443 129.651C106.275 129.651 106.163 129.637 106.107 129.609C106.051 129.581 106.016 129.497 106.002 129.357C105.932 128.671 105.876 127.754 105.834 126.606C105.806 126.312 105.778 125.829 105.75 125.157C105.61 122.791 105.484 121.195 105.372 120.369C105.26 119.529 105.204 119.06 105.204 118.962C105.204 118.85 105.26 118.717 105.372 118.563C105.484 118.409 105.589 118.332 105.687 118.332C105.911 118.332 106.093 118.493 106.233 118.815C106.303 118.969 106.38 119.585 106.464 120.663C106.548 121.741 106.618 123.078 106.674 124.674L106.779 127.887C107.549 125.507 108.347 123.351 109.173 121.419C109.999 119.473 110.755 118.5 111.441 118.5C111.903 118.5 112.218 118.836 112.386 119.508C112.554 120.18 112.638 121.153 112.638 122.427C112.638 123.099 112.624 124.065 112.596 125.325L112.575 126.291C113.149 124.289 113.716 122.609 114.276 121.251C114.85 119.893 115.424 119.214 115.998 119.214C117.44 119.214 118.161 122.406 118.161 128.79ZM128.577 123.645C128.675 123.645 128.724 123.75 128.724 123.96C128.724 124.212 128.535 124.765 128.157 125.619C127.793 126.473 127.233 127.264 126.477 127.992C125.735 128.72 124.818 129.084 123.726 129.084C122.83 129.084 122.081 128.804 121.479 128.244C120.877 127.684 120.576 126.823 120.576 125.661C120.576 124.569 120.828 123.491 121.332 122.427C121.836 121.349 122.494 120.474 123.306 119.802C124.118 119.116 124.958 118.773 125.826 118.773C126.344 118.773 126.778 118.892 127.128 119.13C127.492 119.354 127.674 119.683 127.674 120.117C127.674 120.607 127.394 121.083 126.834 121.545C126.288 122.007 125.574 122.413 124.692 122.763C123.81 123.113 122.9 123.365 121.962 123.519C121.794 124.163 121.71 124.793 121.71 125.409C121.71 126.221 121.899 126.851 122.277 127.299C122.669 127.747 123.222 127.971 123.936 127.971C125.014 127.971 125.889 127.586 126.561 126.816C127.233 126.046 127.793 125.178 128.241 124.212C128.269 124.156 128.318 124.051 128.388 123.897C128.458 123.729 128.521 123.645 128.577 123.645ZM126.729 120.348C126.729 120.124 126.61 119.949 126.372 119.823C126.148 119.697 125.882 119.634 125.574 119.634C125.042 119.634 124.531 119.809 124.041 120.159C123.551 120.509 123.138 120.929 122.802 121.419C122.48 121.909 122.27 122.343 122.172 122.721C122.816 122.651 123.495 122.469 124.209 122.175C124.923 121.881 125.518 121.559 125.994 121.209C126.484 120.859 126.729 120.572 126.729 120.348ZM139.684 120.306C139.684 120.544 139.579 120.726 139.369 120.852C139.173 120.978 138.809 121.076 138.277 121.146C136.989 121.37 136.268 121.496 136.114 121.524L134.749 121.755C134.749 122.483 134.756 123.246 134.77 124.044C134.798 124.842 134.833 125.542 134.875 126.144C134.931 126.956 135.029 127.579 135.169 128.013C135.309 128.447 135.386 128.692 135.4 128.748C135.4 128.888 135.309 129.014 135.127 129.126C134.959 129.252 134.798 129.315 134.644 129.315C134.56 129.315 134.49 129.287 134.434 129.231C134.378 129.189 134.329 129.112 134.287 129C134.203 128.804 134.119 128.44 134.035 127.908C133.965 127.376 133.909 126.788 133.867 126.144C133.825 125.57 133.79 124.905 133.762 124.149C133.748 123.379 133.741 122.637 133.741 121.923C132.957 122.049 132.152 122.203 131.326 122.385C130.584 122.539 130.143 122.616 130.003 122.616C129.835 122.616 129.674 122.567 129.52 122.469C129.38 122.371 129.31 122.238 129.31 122.07C129.31 121.888 129.373 121.769 129.499 121.713C129.625 121.657 129.835 121.629 130.129 121.629C130.339 121.629 130.647 121.594 131.053 121.524C131.459 121.44 131.718 121.384 131.83 121.356C132.768 121.174 133.405 121.055 133.741 120.999C133.741 120.705 133.727 120.32 133.699 119.844C133.671 119.2 133.657 118.71 133.657 118.374C133.657 117.828 133.671 117.408 133.699 117.114C133.741 116.806 133.811 116.533 133.909 116.295C134.021 116.015 134.231 115.875 134.539 115.875C134.665 115.875 134.749 115.896 134.791 115.938C134.833 115.98 134.854 116.057 134.854 116.169C134.854 116.253 134.819 116.498 134.749 116.904C134.679 117.31 134.644 117.849 134.644 118.521C134.644 119.039 134.658 119.62 134.686 120.264L134.707 120.831C135.337 120.733 136.583 120.474 138.445 120.054C138.557 120.026 138.648 119.928 138.718 119.76C138.802 119.592 138.886 119.508 138.97 119.508C139.124 119.508 139.278 119.599 139.432 119.781C139.6 119.949 139.684 120.124 139.684 120.306ZM142.144 115.854C142.144 116.064 141.913 116.169 141.451 116.169C141.213 116.169 140.968 116.071 140.716 115.875C140.478 115.679 140.359 115.518 140.359 115.392C140.359 115.238 140.429 115.091 140.569 114.951C140.723 114.811 140.877 114.741 141.031 114.741C141.031 114.741 141.08 114.762 141.178 114.804C141.29 114.832 141.416 114.923 141.556 115.077C141.668 115.189 141.794 115.336 141.934 115.518C142.074 115.7 142.144 115.812 142.144 115.854ZM142.669 129.063C142.669 129.203 142.606 129.308 142.48 129.378C142.368 129.462 142.235 129.497 142.081 129.483C141.885 129.469 141.738 129.154 141.64 128.538C141.556 127.922 141.465 126.753 141.367 125.031C141.311 123.897 141.262 122.791 141.22 121.713C141.178 120.621 141.15 119.781 141.136 119.193C141.136 119.039 141.157 118.927 141.199 118.857C141.255 118.773 141.353 118.731 141.493 118.731C141.815 118.731 142.018 118.864 142.102 119.13C142.186 119.396 142.228 119.907 142.228 120.663L142.207 123.141C142.207 124.555 142.249 125.689 142.333 126.543C142.333 126.585 142.396 127.033 142.522 127.887C142.62 128.475 142.669 128.867 142.669 129.063ZM151.694 124.38C151.694 124.464 151.547 124.723 151.253 125.157C150.973 125.591 150.686 125.983 150.392 126.333C149.664 127.215 149.006 127.894 148.418 128.37C147.844 128.846 147.242 129.084 146.612 129.084C146.08 129.084 145.639 128.853 145.289 128.391C144.953 127.929 144.785 127.397 144.785 126.795C144.785 125.899 145.023 124.765 145.499 123.393C145.975 122.021 146.577 120.831 147.305 119.823C148.033 118.815 148.761 118.311 149.489 118.311C149.797 118.311 150.063 118.423 150.287 118.647C150.413 118.773 150.532 118.941 150.644 119.151C150.756 119.361 150.812 119.55 150.812 119.718C150.812 119.956 150.777 120.236 150.707 120.558C150.651 120.866 150.588 121.02 150.518 121.02C150.378 121.02 150.287 120.943 150.245 120.789C150.203 120.635 150.175 120.439 150.161 120.201C150.119 119.837 150.077 119.599 150.035 119.487C149.993 119.361 149.93 119.298 149.846 119.298C149.188 119.298 148.551 119.76 147.935 120.684C147.319 121.594 146.815 122.658 146.423 123.876C146.031 125.08 145.835 126.011 145.835 126.669C145.835 127.593 146.143 128.055 146.759 128.055C147.207 128.055 147.613 127.943 147.977 127.719C148.355 127.495 148.747 127.18 149.153 126.774C149.909 126.004 150.497 125.339 150.917 124.779C150.945 124.737 151.022 124.632 151.148 124.464C151.288 124.282 151.386 124.191 151.442 124.191C151.61 124.191 151.694 124.254 151.694 124.38ZM160.684 126.06C160.684 126.676 160.432 127.271 159.928 127.845C159.438 128.405 158.787 128.853 157.975 129.189C157.163 129.539 156.316 129.714 155.434 129.714C154.832 129.714 154.426 129.658 154.216 129.546C154.006 129.434 153.901 129.28 153.901 129.084C153.901 128.958 154.062 128.741 154.384 128.433C154.706 128.111 154.923 127.95 155.035 127.95C155.203 127.95 155.287 127.985 155.287 128.055C155.287 128.111 155.252 128.167 155.182 128.223C155.112 128.279 155.077 128.328 155.077 128.37C155.077 128.426 155.161 128.482 155.329 128.538C155.511 128.594 155.728 128.622 155.98 128.622C156.568 128.622 157.156 128.517 157.744 128.307C158.346 128.083 158.836 127.796 159.214 127.446C159.592 127.096 159.781 126.725 159.781 126.333C159.781 125.955 159.662 125.654 159.424 125.43C159.186 125.206 158.885 125.045 158.521 124.947C158.171 124.835 157.576 124.681 156.736 124.485C155.812 124.275 155.091 124.093 154.573 123.939C154.069 123.771 153.663 123.568 153.355 123.33C153.047 123.078 152.893 122.763 152.893 122.385C152.893 121.713 153.222 121.097 153.88 120.537C154.538 119.977 155.294 119.536 156.148 119.214C157.002 118.892 157.66 118.731 158.122 118.731C158.598 118.731 158.836 118.871 158.836 119.151C158.836 119.319 158.78 119.508 158.668 119.718C158.556 119.914 158.388 120.012 158.164 120.012C158.08 120.012 157.989 119.984 157.891 119.928C157.793 119.858 157.695 119.823 157.597 119.823C157.317 119.823 156.876 119.914 156.274 120.096C155.672 120.278 155.126 120.551 154.636 120.915C154.146 121.279 153.901 121.72 153.901 122.238C153.901 122.574 154.09 122.826 154.468 122.994C154.86 123.148 155.581 123.344 156.631 123.582C156.757 123.624 156.883 123.659 157.009 123.687C157.135 123.701 157.247 123.722 157.345 123.75C158.423 124.002 159.249 124.289 159.823 124.611C160.397 124.933 160.684 125.416 160.684 126.06ZM176.065 126.06C176.065 126.676 175.813 127.271 175.309 127.845C174.819 128.405 174.168 128.853 173.356 129.189C172.544 129.539 171.697 129.714 170.815 129.714C170.213 129.714 169.807 129.658 169.597 129.546C169.387 129.434 169.282 129.28 169.282 129.084C169.282 128.958 169.443 128.741 169.765 128.433C170.087 128.111 170.304 127.95 170.416 127.95C170.584 127.95 170.668 127.985 170.668 128.055C170.668 128.111 170.633 128.167 170.563 128.223C170.493 128.279 170.458 128.328 170.458 128.37C170.458 128.426 170.542 128.482 170.71 128.538C170.892 128.594 171.109 128.622 171.361 128.622C171.949 128.622 172.537 128.517 173.125 128.307C173.727 128.083 174.217 127.796 174.595 127.446C174.973 127.096 175.162 126.725 175.162 126.333C175.162 125.955 175.043 125.654 174.805 125.43C174.567 125.206 174.266 125.045 173.902 124.947C173.552 124.835 172.957 124.681 172.117 124.485C171.193 124.275 170.472 124.093 169.954 123.939C169.45 123.771 169.044 123.568 168.736 123.33C168.428 123.078 168.274 122.763 168.274 122.385C168.274 121.713 168.603 121.097 169.261 120.537C169.919 119.977 170.675 119.536 171.529 119.214C172.383 118.892 173.041 118.731 173.503 118.731C173.979 118.731 174.217 118.871 174.217 119.151C174.217 119.319 174.161 119.508 174.049 119.718C173.937 119.914 173.769 120.012 173.545 120.012C173.461 120.012 173.37 119.984 173.272 119.928C173.174 119.858 173.076 119.823 172.978 119.823C172.698 119.823 172.257 119.914 171.655 120.096C171.053 120.278 170.507 120.551 170.017 120.915C169.527 121.279 169.282 121.72 169.282 122.238C169.282 122.574 169.471 122.826 169.849 122.994C170.241 123.148 170.962 123.344 172.012 123.582C172.138 123.624 172.264 123.659 172.39 123.687C172.516 123.701 172.628 123.722 172.726 123.75C173.804 124.002 174.63 124.289 175.204 124.611C175.778 124.933 176.065 125.416 176.065 126.06ZM187.012 129.294C187.012 129.462 186.956 129.602 186.844 129.714C186.732 129.84 186.585 129.903 186.403 129.903C186.263 129.903 186.144 129.868 186.046 129.798C185.948 129.742 185.899 129.658 185.899 129.546L185.941 128.097C186.011 126.375 186.046 124.968 186.046 123.876C186.046 122.28 185.934 121.167 185.71 120.537C185.486 119.893 185.227 119.571 184.933 119.571C184.275 119.571 183.449 120.593 182.455 122.637C181.461 124.667 180.502 126.886 179.578 129.294C179.508 129.49 179.41 129.679 179.284 129.861C179.172 130.043 179.053 130.134 178.927 130.134C178.619 130.134 178.465 130.036 178.465 129.84C178.465 128.986 178.43 127.39 178.36 125.052C178.29 122.7 178.234 121.153 178.192 120.411C178.066 117.905 177.947 116.358 177.835 115.77C177.723 115.182 177.667 114.867 177.667 114.825C177.667 114.685 177.744 114.58 177.898 114.51C178.052 114.44 178.248 114.405 178.486 114.405C178.682 114.405 178.822 114.853 178.906 115.749C179.004 116.631 179.074 117.765 179.116 119.151L179.137 119.739C179.165 120.173 179.186 121.419 179.2 123.477C179.214 125.521 179.221 127.026 179.221 127.992C179.865 126.382 180.467 124.947 181.027 123.687C181.601 122.427 182.259 121.251 183.001 120.159C183.743 119.053 184.429 118.5 185.059 118.5C185.591 118.5 186.039 118.948 186.403 119.844C186.767 120.726 186.949 122.049 186.949 123.813C186.949 124.597 186.963 125.689 186.991 127.089L187.012 129.294ZM196.874 124.653C196.874 125.199 196.671 125.829 196.265 126.543C195.859 127.257 195.285 127.873 194.543 128.391C193.801 128.895 192.954 129.147 192.002 129.147C191.064 129.147 190.371 128.888 189.923 128.37C189.475 127.852 189.251 127.208 189.251 126.438C189.251 125.766 189.37 124.933 189.608 123.939C189.86 122.945 190.21 122.056 190.658 121.272C190.686 121.216 190.798 121.013 190.994 120.663C191.204 120.299 191.435 120.026 191.687 119.844C191.939 119.648 192.205 119.55 192.485 119.55C192.611 119.55 192.723 119.585 192.821 119.655C192.933 119.711 192.989 119.788 192.989 119.886C192.989 119.914 192.947 119.984 192.863 120.096C192.793 120.194 192.737 120.271 192.695 120.327C192.219 120.901 191.834 121.468 191.54 122.028C191.148 122.742 190.84 123.449 190.616 124.149C190.406 124.849 190.301 125.612 190.301 126.438C190.301 127.544 190.973 128.097 192.317 128.097C192.947 128.097 193.528 127.915 194.06 127.551C194.606 127.187 195.04 126.746 195.362 126.228C195.684 125.696 195.845 125.213 195.845 124.779C195.845 124.289 195.684 123.862 195.362 123.498C195.04 123.134 194.599 122.749 194.039 122.343C193.675 122.077 193.409 121.86 193.241 121.692C193.073 121.524 192.989 121.384 192.989 121.272C192.989 121.104 193.108 120.971 193.346 120.873C193.584 120.761 193.864 120.705 194.186 120.705C194.368 120.705 194.487 120.719 194.543 120.747C194.599 120.761 194.627 120.796 194.627 120.852C194.627 120.88 194.599 120.929 194.543 120.999C194.501 121.055 194.48 121.104 194.48 121.146C194.48 121.188 194.62 121.328 194.9 121.566C195.46 122.028 195.929 122.497 196.307 122.973C196.685 123.449 196.874 124.009 196.874 124.653ZM207.872 123.96C207.872 124.954 207.228 125.724 205.94 126.27C204.652 126.816 202.972 127.166 200.9 127.32C200.872 128.272 200.858 129.049 200.858 129.651C200.858 130.449 200.893 131.177 200.963 131.835C200.991 132.087 201.005 132.262 201.005 132.36C201.005 132.584 200.956 132.773 200.858 132.927C200.76 133.095 200.62 133.179 200.438 133.179C200.186 133.179 200.046 133.088 200.018 132.906C200.004 132.668 199.983 132.297 199.955 131.793C199.941 131.303 199.934 130.806 199.934 130.302L199.955 127.362C199.885 127.362 199.752 127.369 199.556 127.383C199.374 127.397 199.192 127.404 199.01 127.404C198.674 127.404 198.506 127.173 198.506 126.711C198.506 126.375 198.59 126.207 198.758 126.207C198.814 126.207 198.982 126.249 199.262 126.333C199.542 126.417 199.78 126.459 199.976 126.459L199.955 120.516C199.843 120.502 199.612 120.481 199.262 120.453C198.912 120.411 198.653 120.341 198.485 120.243C198.331 120.145 198.254 120.005 198.254 119.823C198.254 119.459 198.324 119.277 198.464 119.277C198.618 119.277 198.807 119.333 199.031 119.445C199.059 119.459 199.143 119.501 199.283 119.571C199.423 119.627 199.619 119.669 199.871 119.697C199.955 119.473 200.032 119.319 200.102 119.235C200.186 119.151 200.34 119.109 200.564 119.109C200.844 119.109 200.984 119.165 200.984 119.277C200.984 119.319 200.963 119.396 200.921 119.508C200.879 119.606 200.858 119.704 200.858 119.802C201.726 119.928 202.706 120.187 203.798 120.579C204.904 120.957 205.856 121.44 206.654 122.028C207.466 122.616 207.872 123.26 207.872 123.96ZM206.969 124.044C206.969 123.456 206.633 122.924 205.961 122.448C205.289 121.972 204.477 121.58 203.525 121.272C202.587 120.964 201.684 120.74 200.816 120.6C200.844 121.412 200.865 122.49 200.879 123.834C200.893 125.164 200.9 126.046 200.9 126.48C201.74 126.48 202.636 126.375 203.588 126.165C204.54 125.941 205.338 125.647 205.982 125.283C206.64 124.905 206.969 124.492 206.969 124.044Z" fill="#304835"/>
</svg>
