<svg width="127" height="37" viewBox="0 0 127 37" fill="none" xmlns="http://www.w3.org/2000/svg">
<path d="M28.9479 7.26669C31.9894 15.4711 22.2866 26.6216 21.8702 27.0879C21.7609 27.212 21.6226 27.307 21.4675 27.3645C21.3125 27.422 21.1456 27.4401 20.9818 27.4173C20.3621 27.3351 5.73548 25.204 2.69394 16.9996C1.98188 15.0722 2.06343 12.9411 2.9207 11.0738C3.77796 9.20642 5.34094 7.75537 7.26672 7.03897C9.68701 6.14172 12.1919 6.39691 14.165 7.66647C14.8337 5.41754 16.5669 3.59117 18.9872 2.69391C20.9146 1.98185 23.0458 2.0634 24.9131 2.92067C26.7804 3.77794 28.2315 5.34091 28.9479 7.26669Z" fill="#F6B4A4"/>
<path d="M25.9722 21.3183C25.9722 21.585 25.7806 21.7766 25.3972 21.8933C25.0972 21.9933 24.7306 22.06 24.2972 22.0933C23.8806 22.11 23.6056 22.1183 23.4722 22.1183C23.4556 22.635 23.4222 23.21 23.3722 23.8433C23.3222 24.4766 23.2806 25.0016 23.2472 25.4183L23.1722 26.1933L23.1222 26.9933L22.9722 28.9183C22.9056 29.7683 22.6306 30.1933 22.1472 30.1933C21.9639 30.1933 21.7806 29.9766 21.5972 29.5433C21.4306 29.1266 21.3472 28.785 21.3472 28.5183C21.3472 28.4516 21.4139 28.3183 21.5472 28.1183C21.6806 27.9183 21.7639 27.6683 21.7972 27.3683C21.8639 26.9016 21.9389 26.1266 22.0222 25.0433C22.1056 23.96 22.1639 23.0516 22.1972 22.3183C21.5472 22.3683 20.8472 22.4433 20.0972 22.5433C19.7639 22.5766 19.0139 22.6516 17.8472 22.7683C16.6806 22.885 15.7639 22.96 15.0972 22.9933C15.0306 24.0933 14.9556 25.435 14.8722 27.0183C14.7889 28.6016 14.7472 29.5683 14.7472 29.9183C14.7472 30.0516 14.7639 30.2266 14.7972 30.4433C14.8472 30.66 14.8722 30.8266 14.8722 30.9433C14.8722 31.0933 14.7556 31.2433 14.5222 31.3933C14.3056 31.5433 14.1306 31.6183 13.9972 31.6183C13.8306 31.6183 13.6889 31.51 13.5722 31.2933C13.4722 31.0766 13.4222 30.8266 13.4222 30.5433C13.4222 30.3933 13.4389 30.1433 13.4722 29.7933C13.5056 29.46 13.5306 29.1683 13.5472 28.9183C13.6139 28.4683 13.6556 28.1016 13.6722 27.8183C13.7556 26.835 13.8222 25.885 13.8722 24.9683C13.9222 24.0516 13.9556 23.435 13.9722 23.1183C12.9222 23.3016 11.9306 23.3933 10.9972 23.3933C10.6806 23.3933 10.4139 23.3183 10.1972 23.1683C9.96391 23.0016 9.84724 22.7683 9.84724 22.4683C9.84724 22.2516 9.90557 22.0933 10.0222 21.9933C10.1222 21.8766 10.3389 21.8183 10.6722 21.8183L11.9972 21.8433C12.8639 21.8766 13.5639 21.8933 14.0972 21.8933C14.1806 20.4766 14.2222 19.3433 14.2222 18.4933C14.2222 16.56 14.2056 14.8266 14.1722 13.2933V12.3683C14.1722 12.1183 14.2639 11.9183 14.4472 11.7683C14.6472 11.6016 14.8722 11.5183 15.1222 11.5183C15.3056 11.5183 15.4306 11.66 15.4972 11.9433C15.5639 12.2266 15.5972 12.5433 15.5972 12.8933C15.5972 13.26 15.5556 14.01 15.4722 15.1433C15.3722 17.0766 15.3222 18.1016 15.3222 18.2183L15.1972 21.7933C16.5972 21.76 18.9722 21.5433 22.3222 21.1433C22.3889 20.66 22.5056 19.3933 22.6722 17.3433C22.7389 16.26 22.7972 15.4683 22.8472 14.9683L22.9972 13.0183C23.2139 10.5683 23.3222 9.03495 23.3222 8.41828C23.3222 8.20162 23.4056 8.02662 23.5722 7.89329C23.7389 7.75995 23.9306 7.69329 24.1472 7.69329C24.4472 7.69329 24.5972 7.98495 24.5972 8.56828C24.5972 8.93495 24.5139 9.90995 24.3472 11.4933C24.1639 13.56 24.0639 14.71 24.0472 14.9433C23.9472 16.2266 23.8472 17.4516 23.7472 18.6183C23.6639 19.785 23.6056 20.5683 23.5722 20.9683C23.8722 20.9183 24.1389 20.8433 24.3722 20.7433C24.6722 20.6433 24.9056 20.5933 25.0722 20.5933C25.2389 20.5933 25.4306 20.6933 25.6472 20.8933C25.8639 21.0933 25.9722 21.235 25.9722 21.3183ZM38.1121 21.7433C38.2288 21.7433 38.2871 21.8683 38.2871 22.1183C38.2871 22.4183 38.0621 23.0766 37.6121 24.0933C37.1788 25.11 36.5121 26.0516 35.6121 26.9183C34.7288 27.785 33.6371 28.2183 32.3371 28.2183C31.2704 28.2183 30.3788 27.885 29.6621 27.2183C28.9454 26.5516 28.5871 25.5266 28.5871 24.1433C28.5871 22.8433 28.8871 21.56 29.4871 20.2933C30.0871 19.01 30.8704 17.9683 31.8371 17.1683C32.8038 16.3516 33.8038 15.9433 34.8371 15.9433C35.4538 15.9433 35.9704 16.085 36.3871 16.3683C36.8204 16.635 37.0371 17.0266 37.0371 17.5433C37.0371 18.1266 36.7038 18.6933 36.0371 19.2433C35.3871 19.7933 34.5371 20.2766 33.4871 20.6933C32.4371 21.11 31.3538 21.41 30.2371 21.5933C30.0371 22.36 29.9371 23.11 29.9371 23.8433C29.9371 24.81 30.1621 25.56 30.6121 26.0933C31.0788 26.6266 31.7371 26.8933 32.5871 26.8933C33.8704 26.8933 34.9121 26.435 35.7121 25.5183C36.5121 24.6016 37.1788 23.5683 37.7121 22.4183C37.7454 22.3516 37.8038 22.2266 37.8871 22.0433C37.9704 21.8433 38.0454 21.7433 38.1121 21.7433ZM35.9121 17.8183C35.9121 17.5516 35.7704 17.3433 35.4871 17.1933C35.2204 17.0433 34.9038 16.9683 34.5371 16.9683C33.9038 16.9683 33.2954 17.1766 32.7121 17.5933C32.1288 18.01 31.6371 18.51 31.2371 19.0933C30.8538 19.6766 30.6038 20.1933 30.4871 20.6433C31.2538 20.56 32.0621 20.3433 32.9121 19.9933C33.7621 19.6433 34.4704 19.26 35.0371 18.8433C35.6204 18.4266 35.9121 18.085 35.9121 17.8183ZM42.6838 27.4433C42.6838 27.61 42.5754 27.7433 42.3588 27.8433C42.1421 27.9433 41.9004 27.9933 41.6338 27.9933C41.4338 27.9933 41.2421 27.76 41.0588 27.2933C40.8921 26.81 40.8088 26.085 40.8088 25.1183C40.8254 23.235 40.8504 20.96 40.8838 18.2933C40.9338 15.6266 40.9754 13.6183 41.0088 12.2683C41.0254 11.785 41.1088 11.335 41.2588 10.9183C41.4254 10.5016 41.7088 10.2933 42.1088 10.2933C42.2421 10.2933 42.3254 10.3683 42.3588 10.5183C42.4088 10.6516 42.4338 10.9183 42.4338 11.3183C42.4338 11.335 42.4254 11.3933 42.4088 11.4933C42.4088 11.5766 42.4088 11.735 42.4088 11.9683C42.1088 16.3516 41.9588 20.6266 41.9588 24.7933C41.9588 25.3266 42.0754 25.8933 42.3088 26.4933C42.5588 27.0933 42.6838 27.41 42.6838 27.4433ZM47.6886 27.4433C47.6886 27.61 47.5803 27.7433 47.3636 27.8433C47.147 27.9433 46.9053 27.9933 46.6386 27.9933C46.4386 27.9933 46.247 27.76 46.0636 27.2933C45.897 26.81 45.8136 26.085 45.8136 25.1183C45.8303 23.235 45.8553 20.96 45.8886 18.2933C45.9386 15.6266 45.9803 13.6183 46.0136 12.2683C46.0303 11.785 46.1136 11.335 46.2636 10.9183C46.4303 10.5016 46.7136 10.2933 47.1136 10.2933C47.247 10.2933 47.3303 10.3683 47.3636 10.5183C47.4136 10.6516 47.4386 10.9183 47.4386 11.3183C47.4386 11.335 47.4303 11.3933 47.4136 11.4933C47.4136 11.5766 47.4136 11.735 47.4136 11.9683C47.1136 16.3516 46.9636 20.6266 46.9636 24.7933C46.9636 25.3266 47.0803 25.8933 47.3136 26.4933C47.5636 27.0933 47.6886 27.41 47.6886 27.4433ZM58.5435 17.0683C58.5435 17.4516 58.4519 18.285 58.2685 19.5683C58.0685 21.035 57.9602 21.86 57.9435 22.0433C57.7269 24.0933 57.5685 25.66 57.4685 26.7433C57.3852 27.81 57.3435 28.7766 57.3435 29.6433C57.3435 30.36 57.3935 30.9266 57.4935 31.3433C57.6102 31.76 57.7269 32.085 57.8435 32.3183C57.9769 32.5683 58.0435 32.7183 58.0435 32.7683C58.0435 32.9183 57.9102 33.0516 57.6435 33.1683C57.3769 33.285 57.1019 33.3433 56.8185 33.3433C56.6019 33.3433 56.4269 33.0516 56.2935 32.4683C56.1769 31.885 56.1185 30.9766 56.1185 29.7433C56.1185 28.81 56.2102 27.5516 56.3935 25.9683L56.7685 22.5183C56.3185 23.385 55.7602 24.2183 55.0935 25.0183C54.4435 25.8016 53.7685 26.1933 53.0685 26.1933C52.4185 26.1933 51.8352 25.6266 51.3185 24.4933C50.8019 23.36 50.3935 22.0766 50.0935 20.6433C49.8102 19.21 49.6685 18.16 49.6685 17.4933C49.6685 17.0766 49.7935 16.8683 50.0435 16.8683C50.4102 16.8683 50.6435 17.21 50.7435 17.8933C51.3769 22.5266 52.2602 24.8433 53.3935 24.8433C53.8435 24.8433 54.2352 24.6683 54.5685 24.3183C54.9185 23.9516 55.3269 23.3933 55.7935 22.6433C56.0102 22.2933 56.2435 21.8266 56.4935 21.2433C56.7435 20.66 56.9352 20.1766 57.0685 19.7933L57.2435 17.2683C57.2769 16.885 57.3269 16.6183 57.3935 16.4683C57.4602 16.3016 57.5935 16.2183 57.7935 16.2183C57.9602 16.2183 58.1269 16.3183 58.2935 16.5183C58.4602 16.7016 58.5435 16.885 58.5435 17.0683ZM79.5664 23.7433C79.5664 24.5766 79.283 25.4016 78.7164 26.2183C78.1664 27.0183 77.383 27.6683 76.3664 28.1683C75.3664 28.685 74.2247 28.9433 72.9414 28.9433C71.858 28.9433 70.9997 28.8516 70.3664 28.6683C69.733 28.5016 69.4164 28.26 69.4164 27.9433C69.4164 27.7766 69.533 27.5016 69.7664 27.1183C70.0164 26.7183 70.208 26.5183 70.3414 26.5183C70.5414 26.5183 70.6414 26.56 70.6414 26.6433C70.6414 26.6933 70.608 26.7516 70.5414 26.8183C70.4914 26.885 70.4664 26.9516 70.4664 27.0183C70.4664 27.0683 70.5664 27.1433 70.7664 27.2433C70.983 27.3433 71.308 27.435 71.7414 27.5183C72.1747 27.6016 72.6997 27.6433 73.3164 27.6433C74.2997 27.6433 75.158 27.4516 75.8914 27.0683C76.6414 26.685 77.2164 26.2016 77.6164 25.6183C78.0164 25.035 78.2164 24.4683 78.2164 23.9183C78.2164 23.2016 77.8664 22.585 77.1664 22.0683C76.483 21.5516 75.3747 21.06 73.8414 20.5933C72.358 20.11 71.208 19.71 70.3914 19.3933C69.5914 19.06 68.9414 18.66 68.4414 18.1933C67.9414 17.71 67.6914 17.1266 67.6914 16.4433C67.6914 15.5266 68.208 14.6266 69.2414 13.7433C70.2747 12.8433 71.5497 12.1183 73.0664 11.5683C74.583 11.0016 75.9914 10.7183 77.2914 10.7183C77.958 10.7183 78.3164 10.8516 78.3664 11.1183C78.4164 11.385 78.4414 11.685 78.4414 12.0183C78.4414 12.2683 78.3497 12.3933 78.1664 12.3933C78.083 12.3933 77.983 12.3683 77.8664 12.3183C77.7664 12.2516 77.6747 12.2016 77.5914 12.1683C77.4914 12.135 77.3747 12.1016 77.2414 12.0683C77.108 12.035 76.9164 12.0183 76.6664 12.0183C75.7997 12.0183 74.758 12.2433 73.5414 12.6933C72.3247 13.1433 71.2664 13.7016 70.3664 14.3683C69.483 15.035 69.0414 15.6766 69.0414 16.2933C69.0414 16.7933 69.2414 17.2266 69.6414 17.5933C70.058 17.96 70.608 18.2766 71.2914 18.5433C71.9747 18.7933 72.9414 19.11 74.1914 19.4933C76.0247 20.0266 77.3747 20.6266 78.2414 21.2933C79.1247 21.96 79.5664 22.7766 79.5664 23.7433ZM92.8865 17.7683C92.8865 18.0516 92.7615 18.2683 92.5115 18.4183C92.2782 18.5683 91.8448 18.685 91.2115 18.7683C89.6782 19.035 88.8198 19.185 88.6365 19.2183L87.0115 19.4933C87.0115 20.36 87.0198 21.2683 87.0365 22.2183C87.0698 23.1683 87.1115 24.0016 87.1615 24.7183C87.2282 25.685 87.3448 26.4266 87.5115 26.9433C87.6782 27.46 87.7698 27.7516 87.7865 27.8183C87.7865 27.985 87.6782 28.135 87.4615 28.2683C87.2615 28.4183 87.0698 28.4933 86.8865 28.4933C86.7865 28.4933 86.7032 28.46 86.6365 28.3933C86.5698 28.3433 86.5115 28.2516 86.4615 28.1183C86.3615 27.885 86.2615 27.4516 86.1615 26.8183C86.0782 26.185 86.0115 25.485 85.9615 24.7183C85.9115 24.035 85.8698 23.2433 85.8365 22.3433C85.8198 21.4266 85.8115 20.5433 85.8115 19.6933C84.8782 19.8433 83.9198 20.0266 82.9365 20.2433C82.0532 20.4266 81.5282 20.5183 81.3615 20.5183C81.1615 20.5183 80.9698 20.46 80.7865 20.3433C80.6198 20.2266 80.5365 20.0683 80.5365 19.8683C80.5365 19.6516 80.6115 19.51 80.7615 19.4433C80.9115 19.3766 81.1615 19.3433 81.5115 19.3433C81.7615 19.3433 82.1282 19.3016 82.6115 19.2183C83.0948 19.1183 83.4032 19.0516 83.5365 19.0183C84.6532 18.8016 85.4115 18.66 85.8115 18.5933C85.8115 18.2433 85.7948 17.785 85.7615 17.2183C85.7282 16.4516 85.7115 15.8683 85.7115 15.4683C85.7115 14.8183 85.7282 14.3183 85.7615 13.9683C85.8115 13.6016 85.8948 13.2766 86.0115 12.9933C86.1448 12.66 86.3948 12.4933 86.7615 12.4933C86.9115 12.4933 87.0115 12.5183 87.0615 12.5683C87.1115 12.6183 87.1365 12.71 87.1365 12.8433C87.1365 12.9433 87.0948 13.235 87.0115 13.7183C86.9282 14.2016 86.8865 14.8433 86.8865 15.6433C86.8865 16.26 86.9032 16.9516 86.9365 17.7183L86.9615 18.3933C87.7115 18.2766 89.1948 17.9683 91.4115 17.4683C91.5448 17.435 91.6532 17.3183 91.7365 17.1183C91.8365 16.9183 91.9365 16.8183 92.0365 16.8183C92.2198 16.8183 92.4032 16.9266 92.5865 17.1433C92.7865 17.3433 92.8865 17.5516 92.8865 17.7683ZM102.84 22.9433C102.84 23.5933 102.598 24.3433 102.115 25.1933C101.632 26.0433 100.948 26.7766 100.065 27.3933C99.1817 27.9933 98.1733 28.2933 97.04 28.2933C95.9233 28.2933 95.0983 27.985 94.565 27.3683C94.0317 26.7516 93.765 25.985 93.765 25.0683C93.765 24.2683 93.9067 23.2766 94.19 22.0933C94.49 20.91 94.9067 19.8516 95.44 18.9183C95.4733 18.8516 95.6067 18.61 95.84 18.1933C96.09 17.76 96.365 17.435 96.665 17.2183C96.965 16.985 97.2817 16.8683 97.615 16.8683C97.765 16.8683 97.8983 16.91 98.015 16.9933C98.1483 17.06 98.215 17.1516 98.215 17.2683C98.215 17.3016 98.165 17.385 98.065 17.5183C97.9817 17.635 97.915 17.7266 97.865 17.7933C97.2983 18.4766 96.84 19.1516 96.49 19.8183C96.0233 20.6683 95.6567 21.51 95.39 22.3433C95.14 23.1766 95.015 24.085 95.015 25.0683C95.015 26.385 95.815 27.0433 97.415 27.0433C98.165 27.0433 98.8567 26.8266 99.49 26.3933C100.14 25.96 100.657 25.435 101.04 24.8183C101.423 24.185 101.615 23.61 101.615 23.0933C101.615 22.51 101.423 22.0016 101.04 21.5683C100.657 21.135 100.132 20.6766 99.465 20.1933C99.0317 19.8766 98.715 19.6183 98.515 19.4183C98.315 19.2183 98.215 19.0516 98.215 18.9183C98.215 18.7183 98.3567 18.56 98.64 18.4433C98.9233 18.31 99.2567 18.2433 99.64 18.2433C99.8567 18.2433 99.9983 18.26 100.065 18.2933C100.132 18.31 100.165 18.3516 100.165 18.4183C100.165 18.4516 100.132 18.51 100.065 18.5933C100.015 18.66 99.99 18.7183 99.99 18.7683C99.99 18.8183 100.157 18.985 100.49 19.2683C101.157 19.8183 101.715 20.3766 102.165 20.9433C102.615 21.51 102.84 22.1766 102.84 22.9433ZM113.433 17.5933C113.433 17.7433 113.325 17.9183 113.108 18.1183C112.908 18.3016 112.733 18.3933 112.583 18.3933C112.467 18.3933 112.35 18.3433 112.233 18.2433C112.133 18.1433 112.017 18.0016 111.883 17.8183C111.767 17.6516 111.608 17.51 111.408 17.3933C111.225 17.2766 111.033 17.2183 110.833 17.2183C110.35 17.2183 109.7 17.86 108.883 19.1433C108.067 20.41 107.267 22.01 106.483 23.9433C106.5 24.3266 106.525 24.81 106.558 25.3933C106.608 25.9766 106.642 26.41 106.658 26.6933L106.733 27.6933C106.733 27.9266 106.683 28.1266 106.583 28.2933C106.483 28.4766 106.3 28.5683 106.033 28.5683C105.75 28.5683 105.567 28.1933 105.483 27.4433C105.4 26.6766 105.35 25.5683 105.333 24.1183C105.317 23.7516 105.3 23.2266 105.283 22.5433C105.283 21.86 105.267 21.0433 105.233 20.0933C105.183 18.66 105.158 17.635 105.158 17.0183C105.158 16.635 105.392 16.4433 105.858 16.4433C106.142 16.4433 106.308 16.5683 106.358 16.8183C106.425 17.0516 106.458 17.51 106.458 18.1933V22.1683C106.958 20.885 107.5 19.7766 108.083 18.8433C108.667 17.91 109.233 17.2016 109.783 16.7183C110.35 16.2183 110.85 15.9683 111.283 15.9683C111.65 15.9683 112 16.0516 112.333 16.2183C112.667 16.385 112.933 16.6016 113.133 16.8683C113.333 17.1183 113.433 17.36 113.433 17.5933ZM124.66 21.7433C124.777 21.7433 124.835 21.8683 124.835 22.1183C124.835 22.4183 124.61 23.0766 124.16 24.0933C123.727 25.11 123.06 26.0516 122.16 26.9183C121.277 27.785 120.185 28.2183 118.885 28.2183C117.818 28.2183 116.927 27.885 116.21 27.2183C115.493 26.5516 115.135 25.5266 115.135 24.1433C115.135 22.8433 115.435 21.56 116.035 20.2933C116.635 19.01 117.418 17.9683 118.385 17.1683C119.352 16.3516 120.352 15.9433 121.385 15.9433C122.002 15.9433 122.518 16.085 122.935 16.3683C123.368 16.635 123.585 17.0266 123.585 17.5433C123.585 18.1266 123.252 18.6933 122.585 19.2433C121.935 19.7933 121.085 20.2766 120.035 20.6933C118.985 21.11 117.902 21.41 116.785 21.5933C116.585 22.36 116.485 23.11 116.485 23.8433C116.485 24.81 116.71 25.56 117.16 26.0933C117.627 26.6266 118.285 26.8933 119.135 26.8933C120.418 26.8933 121.46 26.435 122.26 25.5183C123.06 24.6016 123.727 23.5683 124.26 22.4183C124.293 22.3516 124.352 22.2266 124.435 22.0433C124.518 21.8433 124.593 21.7433 124.66 21.7433ZM122.46 17.8183C122.46 17.5516 122.318 17.3433 122.035 17.1933C121.768 17.0433 121.452 16.9683 121.085 16.9683C120.452 16.9683 119.843 17.1766 119.26 17.5933C118.677 18.01 118.185 18.51 117.785 19.0933C117.402 19.6766 117.152 20.1933 117.035 20.6433C117.802 20.56 118.61 20.3433 119.46 19.9933C120.31 19.6433 121.018 19.26 121.585 18.8433C122.168 18.4266 122.46 18.085 122.46 17.8183Z" fill="white"/>
</svg>
